<svg xmlns="http://www.w3.org/2000/svg" viewBox="0 0 512 512">
  <!-- Background: Indigo -->
  <rect width="512" height="512" rx="115" fill="#4F46E5"/>
  
  <!-- Parking "P" letter -->
  <path d="M180 130 L180 382 C180 390 186 396 194 396 L220 396 C228 396 234 390 234 382 L234 310 L290 310 C346 310 392 274 392 220 C392 166 346 130 290 130 L194 130 C186 130 180 136 180 144 Z M234 184 L280 184 C310 184 336 198 336 220 C336 242 310 256 280 256 L234 256 Z" fill="white"/>
  
  <!-- Car silhouette (bottom) -->
  <path d="M120 420 L145 395 C148 392 153 390 158 390 L354 390 C359 390 364 392 367 395 L392 420 L400 420 C406 420 410 424 410 430 L410 440 C410 446 406 450 400 450 L112 450 C106 450 102 446 102 440 L102 430 C102 424 106 420 112 420 Z" fill="white" opacity="0.4"/>
</svg>
